<svg xmlns="http://www.w3.org/2000/svg" viewBox="0 0 618.5 410.11"><defs><style>.a0e50d24-128e-4a66-8873-2919578e9407{fill:#fff;}</style></defs><g id="f0c69fb9-29f5-4475-94d4-20f7ce95da29" data-name="Calque 2"><g id="b83d8cb7-0c66-47c3-acda-1e5569eac66a" data-name="Calque 1"><path class="a0e50d24-128e-4a66-8873-2919578e9407" d="M41.84,396H18.72l-4.39,13.19H.31l23.82-64H36.34l23.95,64h-14ZM22.28,385.37h16l-8-23.95Z" transform="translate(-0.31)"/><path class="a0e50d24-128e-4a66-8873-2919578e9407" d="M78.84,409.23H66.09v-67.5H78.84Z" transform="translate(-0.31)"/><path class="a0e50d24-128e-4a66-8873-2919578e9407" d="M111.18,410.11q-10.46,0-17-6.42T87.58,386.6v-1.23a28.77,28.77,0,0,1,2.77-12.81,20.25,20.25,0,0,1,7.85-8.7,22,22,0,0,1,11.58-3.06q9.75,0,15.35,6.15t5.61,17.45v5.18H100.46a11.85,11.85,0,0,0,3.71,7.48,11.26,11.26,0,0,0,7.85,2.81,13.71,13.71,0,0,0,11.47-5.32l6.24,7a19.09,19.09,0,0,1-7.74,6.3A25.34,25.34,0,0,1,111.18,410.11ZM109.73,371a7.93,7.93,0,0,0-6.13,2.56,13.25,13.25,0,0,0-3,7.33h17.67v-1a9.43,9.43,0,0,0-2.29-6.55A8.16,8.16,0,0,0,109.73,371Z" transform="translate(-0.31)"/><path class="a0e50d24-128e-4a66-8873-2919578e9407" d="M156.05,375.87l8-14.19h13.58L164.09,385l14.11,24.26H164.57l-8.48-14.94-8.43,14.94H134L148.1,385l-13.5-23.29h13.63Z" transform="translate(-0.31)"/><path class="a0e50d24-128e-4a66-8873-2919578e9407" d="M183.65,349.37a6.23,6.23,0,0,1,1.91-4.7,8.25,8.25,0,0,1,10.39,0,6.7,6.7,0,0,1,0,9.45,8.14,8.14,0,0,1-10.33,0A6.24,6.24,0,0,1,183.65,349.37Zm13.49,59.86H184.39V361.68h12.75Z" transform="translate(-0.31)"/><path class="a0e50d24-128e-4a66-8873-2919578e9407" d="M233.35,396.09a4.09,4.09,0,0,0-2.31-3.67,26.37,26.37,0,0,0-7.4-2.4q-17-3.56-17-14.41A13.07,13.07,0,0,1,211.93,365q5.25-4.25,13.73-4.24,9,0,14.48,4.26a13.45,13.45,0,0,1,5.43,11.08h-12.7a6.17,6.17,0,0,0-1.76-4.51c-1.17-1.18-3-1.78-5.49-1.78a7.65,7.65,0,0,0-5,1.45,4.6,4.6,0,0,0-1.76,3.7,3.91,3.91,0,0,0,2,3.4,20.4,20.4,0,0,0,6.75,2.24,55.51,55.51,0,0,1,8,2.13q10.05,3.69,10.06,12.79a12.41,12.41,0,0,1-5.58,10.53q-5.58,4-14.42,4A25.16,25.16,0,0,1,215.09,408a17.79,17.79,0,0,1-7.27-5.85,13.56,13.56,0,0,1-2.64-8h12a6.62,6.62,0,0,0,2.51,5.19,9.93,9.93,0,0,0,6.24,1.8,9.12,9.12,0,0,0,5.51-1.39A4.29,4.29,0,0,0,233.35,396.09Z" transform="translate(-0.31)"/><path class="a0e50d24-128e-4a66-8873-2919578e9407" d="M324.63,389.28q-1.1,10.1-7.23,15.47t-16.32,5.36a22.59,22.59,0,0,1-12.59-3.56A23.24,23.24,0,0,1,280,396.46a36,36,0,0,1-3-14.92v-8.3a36.27,36.27,0,0,1,3-15.12,22.94,22.94,0,0,1,8.6-10.17,23.38,23.38,0,0,1,12.89-3.59q10.29,0,16.24,5.54t6.92,15.34h-5.45q-2-16.31-17.71-16.31a16.77,16.77,0,0,0-13.86,6.51q-5.16,6.51-5.16,18v7.83q0,11.08,5,17.68a16.2,16.2,0,0,0,13.6,6.6q8.48,0,12.79-4.07t5.31-12.19Z" transform="translate(-0.31)"/><path class="a0e50d24-128e-4a66-8873-2919578e9407" d="M372.31,391.25h-29l-6.6,18H331l24.22-64h5.14l24.21,64H379Zm-27.37-4.57H370.6l-12.83-34.85Z" transform="translate(-0.31)"/><path class="a0e50d24-128e-4a66-8873-2919578e9407" d="M417.88,382.55H399.3v26.68h-5.45v-64h20.78q10.25,0,16,5t5.76,13.87a17.37,17.37,0,0,1-3.61,10.85,18.39,18.39,0,0,1-9.67,6.49l16,27.25v.57h-5.76ZM399.3,378h16.56q6.81,0,10.95-3.87a13.15,13.15,0,0,0,4.13-10q0-6.76-4.31-10.52t-12.09-3.74H399.3Z" transform="translate(-0.31)"/><path class="a0e50d24-128e-4a66-8873-2919578e9407" d="M456.56,404.66h31.59v4.57h-37v-64h5.45Z" transform="translate(-0.31)"/><path class="a0e50d24-128e-4a66-8873-2919578e9407" d="M505.12,409.23h-5.41v-64h5.41Z" transform="translate(-0.31)"/><path class="a0e50d24-128e-4a66-8873-2919578e9407" d="M557.81,378.55H527.88v26.11h34.41v4.57H522.47v-64h39.6v4.57H527.88V374h29.93Z" transform="translate(-0.31)"/><path class="a0e50d24-128e-4a66-8873-2919578e9407" d="M597.58,382.55H579v26.68h-5.45v-64h20.79q10.23,0,16,5t5.76,13.87a17.31,17.31,0,0,1-3.61,10.85,18.41,18.41,0,0,1-9.66,6.49l16,27.25v.57h-5.75ZM579,378h16.57q6.81,0,10.94-3.87a13.15,13.15,0,0,0,4.13-10q0-6.76-4.31-10.52t-12.08-3.74H579Z" transform="translate(-0.31)"/><path class="a0e50d24-128e-4a66-8873-2919578e9407" d="M45.53,145a6.72,6.72,0,0,1-6.72-6.72V67.11a6.71,6.71,0,0,1,6.72-6.71h71.71a6.72,6.72,0,1,1,0,13.43h-65v64.43A6.71,6.71,0,0,1,45.53,145Z" transform="translate(-0.31)"/><path class="a0e50d24-128e-4a66-8873-2919578e9407" d="M577.19,145a6.72,6.72,0,0,1-6.72-6.72V73.83h-65a6.72,6.72,0,1,1,0-13.43h71.72a6.71,6.71,0,0,1,6.71,6.71v71.15A6.72,6.72,0,0,1,577.19,145Z" transform="translate(-0.31)"/><polygon class="a0e50d24-128e-4a66-8873-2919578e9407" points="99.17 86.77 104.24 103.14 121.39 102.91 107.38 112.79 112.9 129.02 99.17 118.75 85.44 129.02 90.97 112.79 76.96 102.91 94.1 103.14 99.17 86.77"/><path class="a0e50d24-128e-4a66-8873-2919578e9407" d="M543.33,105.69c-14.4,21.58-34.56,38.92-54.92,54.76-23.16,17.8-48.1,33.19-73.63,47.24-14,7.6-28.93,15.16-43.39,21.83-64.93,29.74-133.58,53.14-204.88,61.36C140.13,293.5,95.27,296.16,74.6,277c-10.54-9.9-10.58-24.41-3.76-36.42,12.75-22.15,38.43-38.77,60.18-50.86-13.85,13.15-27.56,26.3-38.45,41.75-4.8,7.07-9.26,14.43-10,22.5-.9,12.19,16.68,14,26.18,14.91,18,1.09,36.3-1.27,54.13-4.22,43.05-7.55,85.23-20,126.71-34,38.72-13.14,76.95-28.26,114.38-44.74,25.86-11.61,51.57-23.86,76.34-37.72,22.15-12.42,43.87-25.5,63-42.5Z" transform="translate(-0.31)"/><path class="a0e50d24-128e-4a66-8873-2919578e9407" d="M160,247.42l.64-.11c-1.16-5.57-2.07-11.18-2.68-16.81C151.39,172,175.14,113.7,222.07,78c64.55-49.54,156.8-42.33,213.22,16.19a162.55,162.55,0,0,1,29.82,42.47q3.39-1.85,6.7-3.69c8.71-4.89,16.81-9.59,24.43-14.33C457.1,21.51,346-25.21,248.39,13.71A190.34,190.34,0,0,0,156.2,92c-29.39,47.44-33.76,107.45-14.73,158.12C147.73,249.37,153.92,248.42,160,247.42Z" transform="translate(-0.31)"/><path class="a0e50d24-128e-4a66-8873-2919578e9407" d="M499.16,174.26l-.08.06q-8.85,6.8-18.49,13.48a176.69,176.69,0,0,1-13.89,96.26,207.19,207.19,0,0,1-22.77,38.6c47.75-35.45,70.66-97,64.48-155.74C505.33,169.42,502.23,171.86,499.16,174.26Z" transform="translate(-0.31)"/></g></g></svg>