<?xml version="1.0" encoding="UTF-8"?>
<svg id="Calque_2" data-name="Calque 2" xmlns="http://www.w3.org/2000/svg" viewBox="0 0 639.17 382.08">
  <defs>
    <style>
      .cls-1 {
        fill: #fff;
      }
    </style>
  </defs>
  <g id="Calque_1-2" data-name="Calque 1">
    <g>
      <g>
        <g>
          <path class="cls-1" d="m141.55,291.47c-23.07-114.72,54.79-238.5,186.24-238.38,18.13.02,50.67,2.63,84.03,19.11,52.11,25.73,76.69,68.59,84.79,84.41,5.83-3.58,11.71-7.16,17.63-10.73,6.22-3.76,12.41-7.47,18.58-11.14-6.66-13.78-53.98-107.71-158.77-130.96-16.73-3.71-64.25-8.4-114.49,6.32C134.83,46.64,75.39,189.06,119.33,298.33c7.65-2.32,15.1-4.62,22.21-6.86Z"/>
          <path class="cls-1" d="m517.14,217.17c2.81,21.14,5.13,61.46-12.39,106.59-10.01,25.78-23.4,45.15-34.27,58.32,15.72-11.97,56.23-46.18,73.55-105.91,10.39-35.84,8.4-66.94,5.63-85.7-4.48,3.5-9,7.09-13.55,10.8-6.54,5.32-12.86,10.63-18.96,15.89Z"/>
        </g>
        <path class="cls-1" d="m70.88,106.94l3.6,16.02c.05.22.25.37.48.35l16.35-1.53c.47-.04.68.59.27.83l-14.13,8.37c-.19.11-.27.35-.18.56l6.51,15.08c.19.44-.35.83-.7.51l-12.33-10.85c-.17-.15-.42-.15-.59,0l-12.33,10.85c-.36.31-.89-.07-.7-.51l6.51-15.08c.09-.21.01-.45-.18-.56l-14.13-8.37c-.41-.24-.21-.87.27-.83l16.35,1.53c.22.02.43-.13.48-.35l3.6-16.02c.1-.46.77-.46.87,0Z"/>
      </g>
      <path class="cls-1" d="m590.08,126.92c-86.95,86.55-199,143.96-313.14,186.6-56.64,17.76-196.39,66.57-243.97,14.75-23.18-44.7,42.18-84.6,71.72-104.61-20.62,21.89-42.69,44.47-53.76,69.78-28.77,70.28,186.74-3.38,214.01-13.73,112.79-40.7,222.09-90.14,325.14-152.79Z"/>
      <g>
        <path class="cls-1" d="m7.77,170.56c-4.29,0-7.77-3.48-7.77-7.77v-82.63c0-4.29,3.48-7.77,7.77-7.77h82.63c4.29,0,7.77,3.48,7.77,7.77s-3.48,7.77-7.77,7.77H15.55v74.86c0,4.29-3.48,7.77-7.77,7.77Z"/>
        <path class="cls-1" d="m631.4,170.56c-4.29,0-7.77-3.48-7.77-7.77v-74.86h-74.86c-4.29,0-7.77-3.48-7.77-7.77s3.48-7.77,7.77-7.77h82.63c4.29,0,7.77,3.48,7.77,7.77v82.63c0,4.29-3.48,7.77-7.77,7.77Z"/>
      </g>
    </g>
  </g>
</svg>