<svg xmlns="http://www.w3.org/2000/svg" xmlns:xlink="http://www.w3.org/1999/xlink" width="240" height="223" viewBox="0 0 240 223"><defs><clipPath id="a"><rect width="228" height="199" transform="translate(-0.028 0.225)" fill="none"/></clipPath></defs><g transform="translate(-1472 -341)"><circle cx="105.5" cy="105.5" r="105.5" transform="translate(1501 341)" fill="#90c1fc"/><g transform="translate(1472.028 364.775)" clip-path="url(#a)"><path d="M227.61,5.524a8.542,8.542,0,0,0-2.139-2.647A9.133,9.133,0,0,0,216.357.33Q110.724,41.472,5.094,82.616A9.648,9.648,0,0,0,0,91.373,6.273,6.273,0,0,0,4.89,97.551l54.586,18.671C101.111,88.449,177.72,37.638,182.266,37.144c2.629-.284,3.437.789,3.437.789s.7.927.053,2.878c-1.291,3.89-63.155,62.1-97.891,94.6q42.834,28.951,85.67,57.9c2.064,1.238,5.846,3.089,9.368,1.833,4.283-1.528,5.951-6.855,6.62-8.963,17.937-56.444,25.5-115.672,38.6-173.429a10.644,10.644,0,0,0-.51-7.231" transform="translate(0 -0.002)" fill="#f5f5f5"/></g></g></svg>