<svg xmlns="http://www.w3.org/2000/svg" xmlns:xlink="http://www.w3.org/1999/xlink" width="200" height="175" viewBox="0 0 200 175"><defs><clipPath id="a"><rect width="200" height="175" fill="none"/></clipPath></defs><g clip-path="url(#a)"><path d="M199.707,4.847a7.5,7.5,0,0,0-1.877-2.323,8.013,8.013,0,0,0-8-2.234L4.469,72.488A8.465,8.465,0,0,0,0,80.171,5.5,5.5,0,0,0,4.29,85.592l47.894,16.382C88.715,77.606,155.933,33.024,159.922,32.59c2.307-.249,3.015.693,3.015.693a2.836,2.836,0,0,1,.046,2.526c-1.132,3.413-55.413,54.483-85.891,83q37.583,25.4,75.168,50.805c1.811,1.086,5.13,2.71,8.219,1.608,3.758-1.341,5.222-6.015,5.808-7.864,15.738-49.524,22.373-101.492,33.867-152.169a9.339,9.339,0,0,0-.448-6.344" transform="translate(0 -0.001)" fill="#f5f5f5"/></g></svg>