<svg xmlns="http://www.w3.org/2000/svg" viewBox="0 0 99.88 85.47"><defs><style>.a538de91-35ec-42cc-a3cf-2f33a8684e31{fill:#90c1fc;}.e15bf4ac-1a40-4b4f-8fcc-6fec2a9f35f0{fill:#117dff;}.b58a3703-d246-463e-bab5-8ae3847bb3cf{fill:#003f8b;}</style></defs><g id="edacf094-3519-4af2-b635-b7fdc81ea5e6" data-name="Calque 2"><g id="a3e36736-d682-49e5-a0da-76bfde028918" data-name="Calque 1"><path class="a538de91-35ec-42cc-a3cf-2f33a8684e31" d="M98.54,1.26A4,4,0,0,0,96.89.2,4.15,4.15,0,0,0,94.56.14l-92.33,36A4.14,4.14,0,0,0,.54,37.77,4.18,4.18,0,0,0,0,39.93a2.76,2.76,0,0,0,2.14,2.7L26,50.79,75.84,84.48a5,5,0,0,0,4.1.81c1.87-.67,2.6-3,2.89-3.92C90.67,56.7,94,30.82,99.7,5.57a4.66,4.66,0,0,0-.23-3.16A3.68,3.68,0,0,0,98.54,1.26Z"/><path class="e15bf4ac-1a40-4b4f-8fcc-6fec2a9f35f0" d="M26,50.79Q30.81,65,35.6,79.18a2,2,0,0,0,.39.74,1.81,1.81,0,0,0,.51.43l1.89-21.16C53.57,45,80.62,19.54,81.18,17.84a1.43,1.43,0,0,0,0-1.26s-.35-.47-1.5-.35C77.67,16.45,44.19,38.66,26,50.79Z"/><path class="b58a3703-d246-463e-bab5-8ae3847bb3cf" d="M51.51,68.07,38.39,59.19,36.5,80.35a2.71,2.71,0,0,0,1.55.06,2.62,2.62,0,0,0,1-.53C39.9,79.21,44.83,74.54,51.51,68.07Z"/></g></g></svg>