<svg xmlns="http://www.w3.org/2000/svg" viewBox="0 0 123.37 120.68"><defs><style>.a8423abb-0667-4a2d-8b6f-7e420501e6c2{fill:#003f8b;}</style></defs><g id="fedeeb10-18c1-426a-83cc-0271a77118f1" data-name="Calque 2"><g id="b1493745-86d9-4591-ad70-228f58a4c009" data-name="Calque 1"><path class="a8423abb-0667-4a2d-8b6f-7e420501e6c2" d="M121.29,7.74a17,17,0,0,0-5.42-6.35C113.64-.08,111.46-.4,109.73.5h0a1.17,1.17,0,0,0-.31.12L90.33,10.52a2.27,2.27,0,0,0-1.13,2.64L58,29.33a2.58,2.58,0,0,0-1.1,3.48L57,33,37.37,43.19h0l-2.53-4.87,3.67-1.9,0,.05a.82.82,0,0,0,1.11.35l11.52-6h0l0,0,.12-.06a.71.71,0,0,0,.09-.07h0a1.63,1.63,0,0,0,.5-1.29,5,5,0,0,0-.54-2.14c-.78-1.59-2.06-2.51-2.92-2.09l0,0-11.6,6a.82.82,0,0,0-.36,1.11l0,0-4.15,2.16a1.46,1.46,0,0,0-1,.13l-1.39.72a1.44,1.44,0,0,0-.68.74L24.09,38.8a.7.7,0,0,0-.3.93l.19.37L19.9,42.22a.3.3,0,0,0-.13.4l.89,1.7a.29.29,0,0,0,.4.13l4.08-2.12.1.19a.68.68,0,0,0,.93.29l4.63-2.4,2.53,4.86h0l-15.1,7.84A2.17,2.17,0,0,0,17.31,56l.6,1.16-6.64,3.44-4.15-8a.93.93,0,0,0-1.26-.4L.5,55a.94.94,0,0,0-.39,1.26L7.46,70.47a.93.93,0,0,0,1.26.4l5.36-2.78h0l7.47-3.87.3.58a2.17,2.17,0,0,0,2.92.92l29-15L61.37,57h-4a.9.9,0,0,0-.9.91V62a.9.9,0,0,0,.9.91h3.23L41.68,116.73a3,3,0,0,0,1.81,3.78h0a3,3,0,0,0,3.79-1.81l17-48.28v32.35a3,3,0,1,0,5.93,0v-37L88.85,118.7a3,3,0,0,0,3.78,1.81h0a3,3,0,0,0,1.82-3.78L75.51,63h1.58A.91.91,0,0,0,78,62V57.92a.91.91,0,0,0-.91-.91H71.75V53a4.52,4.52,0,0,0-4.51-4.5h0c-.11,0-.21,0-.32,0V47a2,2,0,0,0,.22-.09L98.29,30.71a2.25,2.25,0,0,0,2.87.68l19-9.88.35-.15C124,19.57,124.33,13.59,121.29,7.74ZM48.86,25.56c.56,0,1.43.69,2,1.91a4.44,4.44,0,0,1,.49,1.93c0,.51-.15.87-.41,1s-.64,0-1-.29a2.7,2.7,0,0,1-.31-.28,5.56,5.56,0,0,1-.87-1.3,5.74,5.74,0,0,1-.5-1.5c-.09-.72.07-1.27.39-1.42A.43.43,0,0,1,48.86,25.56ZM119.8,19.9c-1.36.71-3.22.17-5-1.22a17,17,0,0,1-4.26-5.38,17.75,17.75,0,0,1-1.85-5.66C108.35,5,109,2.75,110.49,2a3,3,0,0,1,1.34-.31A5.92,5.92,0,0,1,115,2.76a15.42,15.42,0,0,1,4.87,5.73C122.36,13.36,122.34,18.58,119.8,19.9Z"/></g></g></svg>