<svg xmlns="http://www.w3.org/2000/svg" viewBox="0 0 206.63 186.75"><defs><style>.b4d70991-883a-4da4-a9c5-6fed3c599689{fill:#003f8b;}</style></defs><g id="aaacde0f-6838-4902-b435-ff00bd651c00" data-name="Calque 2"><g id="fca10d29-56b6-40ad-aa32-97be0de88ef6" data-name="Calque 1"><path class="b4d70991-883a-4da4-a9c5-6fed3c599689" d="M52,91.07l-37.5-16.7a4.74,4.74,0,0,1-3.13-4.55,4.17,4.17,0,0,1,.81-2.59,6.09,6.09,0,0,1,2.32-1.79L52,48.75a3.06,3.06,0,0,1,2.14-.27,2.76,2.76,0,0,1,1.52,1,3.25,3.25,0,0,1,.63,1.7A3.38,3.38,0,0,1,56,53a2.81,2.81,0,0,1-1.61,1.34L20.73,70l4.92,2.2L54.36,85.45A2.8,2.8,0,0,1,56,86.78a3.33,3.33,0,0,1,.36,1.84,3.42,3.42,0,0,1-.63,1.69,2.63,2.63,0,0,1-1.52,1A3.06,3.06,0,0,1,52,91.07Z"/><path class="b4d70991-883a-4da4-a9c5-6fed3c599689" d="M65.7,98.48a3.4,3.4,0,0,1-1.29,1.88,3.51,3.51,0,0,1-1.92.53,3.71,3.71,0,0,1-1.92-.49,2.72,2.72,0,0,1-1.21-1.47,4.26,4.26,0,0,1,0-2.41L80.44,31.07a3.37,3.37,0,0,1,1.34-1.83,3.41,3.41,0,0,1,1.92-.58,3.6,3.6,0,0,1,1.91.53,2.84,2.84,0,0,1,1.25,1.47,4,4,0,0,1,0,2.37Z"/><path class="b4d70991-883a-4da4-a9c5-6fed3c599689" d="M94.27,91.07a3.22,3.22,0,0,1-2.18.27,2.8,2.8,0,0,1-1.52-1,2.93,2.93,0,0,1-.63-1.69,3.76,3.76,0,0,1,.4-1.84A2.83,2.83,0,0,1,92,85.45L127.28,70h0L92,54.37A2.84,2.84,0,0,1,90.34,53a3.81,3.81,0,0,1-.4-1.87,2.81,2.81,0,0,1,.63-1.7,2.94,2.94,0,0,1,1.52-1,3.22,3.22,0,0,1,2.18.27l37.42,16.69q3.21,1.35,3.21,4.38a4.56,4.56,0,0,1-.8,2.72,5.7,5.7,0,0,1-2.41,1.83Z"/><path class="b4d70991-883a-4da4-a9c5-6fed3c599689" d="M137.93,0H8.38A8.38,8.38,0,0,0,0,8.38V121.17a8.38,8.38,0,0,0,8.38,8.38H137.93a8.38,8.38,0,0,0,8.38-8.38V8.38A8.38,8.38,0,0,0,137.93,0ZM120.67,5.7A1.71,1.71,0,0,1,122.39,4h3.81a1.71,1.71,0,0,1,1.71,1.71V9.51a1.72,1.72,0,0,1-1.71,1.72h-3.81a1.72,1.72,0,0,1-1.72-1.72Zm-9.79,0A1.71,1.71,0,0,1,112.59,4h3.81a1.71,1.71,0,0,1,1.72,1.71V9.51a1.72,1.72,0,0,1-1.72,1.72h-3.81a1.72,1.72,0,0,1-1.71-1.72Zm26.83,109.12a7.11,7.11,0,0,1-7.11,7.11H15.71a7.1,7.1,0,0,1-7.1-7.11V23.49a7.11,7.11,0,0,1,7.1-7.11H130.6a7.11,7.11,0,0,1,7.11,7.11Zm0-105.31A1.72,1.72,0,0,1,136,11.23h-3.81a1.72,1.72,0,0,1-1.71-1.72V5.7A1.71,1.71,0,0,1,132.18,4H136a1.71,1.71,0,0,1,1.72,1.71Z"/><path class="b4d70991-883a-4da4-a9c5-6fed3c599689" d="M203.77,132.88c-2.81-1-5.69-2-8.59-3.07a53.65,53.65,0,0,0-2.69-26.25c2.63-1.6,5.24-3.19,7.78-4.76,1.77-1.1,2.65-2.81,2-4l-.17-.31-4.22-7.82-.16-.31c-.62-1.14-2.53-1.35-4.42-.47-2.71,1.27-5.47,2.57-8.25,3.9a53.37,53.37,0,0,0-20.47-16.65q1.11-4.5,2.14-8.87c.48-2-.11-3.86-1.35-4.23l-.34-.1-4.26-1.27-4.25-1.28-.34-.1c-1.24-.37-2.74.83-3.45,2.79-1,2.82-2,5.69-3.08,8.59-1.16-.17-2.31-.3-3.46-.39V94.42a28.86,28.86,0,0,1,3.68.8h0a28,28,0,0,1-4.95,54.6c-.9.1-1.81.16-2.73.17A28,28,0,0,1,115,129.64H88.59a53.41,53.41,0,0,0,2.7,10.84c-2.63,1.59-5.24,3.18-7.78,4.75a5.15,5.15,0,0,0-1.91,2,2.09,2.09,0,0,0-.12,2l.16.31,4.22,7.82.17.31a2.11,2.11,0,0,0,1.73,1,5.17,5.17,0,0,0,2.69-.52q4.06-1.91,8.24-3.9a53.62,53.62,0,0,0,20.47,16.65c-.73,3-1.45,6-2.14,8.87-.47,2,.12,3.86,1.36,4.23l.33.1,8.52,2.55.34.1c1.24.37,2.74-.83,3.45-2.79,1-2.82,2-5.69,3.08-8.59a53.46,53.46,0,0,0,26.25-2.7q2.39,4,4.76,7.79a5.2,5.2,0,0,0,1.95,1.91,2.14,2.14,0,0,0,2,.12l.3-.17,7.82-4.22.31-.17c1.14-.61,1.35-2.52.47-4.41-1.27-2.71-2.57-5.47-3.9-8.25a53.43,53.43,0,0,0,13.42-14.5,55.28,55.28,0,0,0,3.24-6c3,.73,6,1.45,8.87,2.14,2,.48,3.85-.11,4.23-1.36l.1-.33,1.27-4.26,1.27-4.26.1-.33C206.93,135.09,205.73,133.6,203.77,132.88Z"/></g></g></svg>