<svg xmlns="http://www.w3.org/2000/svg" viewBox="0 0 283.46 225.88"><defs><style>.a206a7cc-60ff-437b-9126-70d7a7302880{fill:#003f8b;}</style></defs><g id="bff2ca88-490a-433a-a9fc-6e423ef77b26" data-name="Calque 2"><g id="ec963011-8d78-456d-8aaf-583a467bae32" data-name="Calque 1"><path class="a206a7cc-60ff-437b-9126-70d7a7302880" d="M280.78,70.9c-2.63-1-5.33-1.92-8-2.89a50.3,50.3,0,0,0-2.52-24.61c2.46-1.5,4.91-3,7.29-4.46,1.67-1,2.48-2.64,1.91-3.71l-.16-.28-4-7.34-.15-.29c-.58-1.07-2.37-1.26-4.14-.44q-3.83,1.79-7.74,3.66a50.21,50.21,0,0,0-19.19-15.62c.68-2.81,1.36-5.59,2-8.32.45-1.9-.1-3.61-1.27-4l-.31-.1-4-1.19-4-1.19-.31-.1C235-.29,233.62.84,233,2.68,232,5.32,231,8,230.06,10.73a50.17,50.17,0,0,0-24.61,2.53c-1.5-2.47-3-4.91-4.47-7.3-1-1.66-2.63-2.48-3.7-1.9l-.29.15-7.33,4-.29.16c-1.07.58-1.27,2.37-.44,4.14,1.19,2.54,2.41,5.13,3.65,7.73A50.31,50.31,0,0,0,177,39.4c-2.81-.69-5.59-1.36-8.32-2-1.9-.45-3.62.11-4,1.27l-.09.32-1.19,4-1.2,4-.09.32c-.35,1.16.78,2.57,2.62,3.24,2.63,1,5.33,1.92,8.05,2.88A50.21,50.21,0,0,0,175.31,78L168,82.48a4.81,4.81,0,0,0-1.79,1.84,2,2,0,0,0-.11,1.86l.15.29,4,7.34.16.28A2,2,0,0,0,172,95a4.93,4.93,0,0,0,2.52-.5c2.54-1.18,5.12-2.41,7.73-3.65a50.41,50.41,0,0,0,19.2,15.62c-.69,2.8-1.37,5.58-2,8.31-.45,1.91.11,3.62,1.27,4l.32.09,8,2.39.31.09c1.17.35,2.57-.78,3.24-2.61,1-2.64,1.93-5.34,2.89-8.06a50.43,50.43,0,0,0,24.62-2.52c1.49,2.47,3,4.91,4.46,7.29a4.82,4.82,0,0,0,1.83,1.8,2,2,0,0,0,1.87.11l.29-.16,7.33-4,.29-.15c1.07-.58,1.27-2.37.44-4.14-1.18-2.54-2.41-5.13-3.65-7.74a50.17,50.17,0,0,0,12.58-13.6,51.77,51.77,0,0,0,3-5.59c2.8.69,5.58,1.36,8.31,2,1.91.45,3.62-.1,4-1.27l.09-.31,1.19-4,1.2-4,.09-.31C283.75,73,282.62,71.57,280.78,70.9ZM225.62,86.78a24.26,24.26,0,0,1-2.56.16,26.23,26.23,0,1,1,7.2-51.36h0a26.23,26.23,0,0,1-4.64,51.2Z"/><path class="a206a7cc-60ff-437b-9126-70d7a7302880" d="M251.7,162.64c-1.5-.55-3-1.09-4.58-1.64a28.41,28.41,0,0,0-1.43-14l4.14-2.53c.95-.59,1.41-1.5,1.09-2.11l-.09-.16-2.25-4.17-.09-.16c-.33-.61-1.34-.72-2.35-.25l-4.39,2.07a28.64,28.64,0,0,0-10.9-8.86c.39-1.6.77-3.18,1.13-4.73.26-1.08,0-2.05-.72-2.25l-.18-.05-2.26-.68-2.27-.68-.18,0c-.66-.2-1.46.44-1.84,1.49-.54,1.49-1.09,3-1.64,4.57a28.52,28.52,0,0,0-14,1.43c-.85-1.4-1.69-2.79-2.53-4.14-.59-1-1.5-1.41-2.1-1.08l-.17.09L200,127l-.17.09c-.61.33-.72,1.35-.25,2.35q1,2.18,2.08,4.4a28.42,28.42,0,0,0-8.87,10.9c-1.59-.39-3.17-.78-4.73-1.14-1.08-.26-2,.06-2.25.72l0,.18-.68,2.27-.68,2.27,0,.17c-.2.67.44,1.46,1.49,1.84,1.49.55,3,1.09,4.57,1.64a28.52,28.52,0,0,0,1.44,14q-2.12,1.27-4.15,2.54a2.8,2.8,0,0,0-1,1,1.15,1.15,0,0,0-.06,1.06l.09.16,2.25,4.17.09.16a1.1,1.1,0,0,0,.92.53,2.68,2.68,0,0,0,1.43-.28l4.39-2.07a28.61,28.61,0,0,0,10.9,8.87c-.39,1.59-.77,3.17-1.14,4.72-.25,1.08.06,2,.72,2.25l.18,0,4.54,1.36.18,0c.66.2,1.45-.44,1.83-1.48q.83-2.25,1.64-4.58a28.21,28.21,0,0,0,7.16.15,28.56,28.56,0,0,0,6.82-1.58c.85,1.4,1.7,2.79,2.54,4.14a2.73,2.73,0,0,0,1,1,1.12,1.12,0,0,0,1.06.06l.16-.08,4.17-2.25.16-.09c.61-.33.72-1.35.25-2.35-.67-1.45-1.37-2.91-2.07-4.39a28.51,28.51,0,0,0,7.14-7.73,27,27,0,0,0,1.73-3.18c1.59.39,3.17.78,4.72,1.14,1.08.26,2.06-.06,2.25-.72l.06-.18.67-2.27.68-2.26.06-.18C253.38,163.82,252.74,163,251.7,162.64Zm-31.33,9c-.48.05-1,.08-1.46.09a15.16,15.16,0,0,1-4.43-.63A14.89,14.89,0,1,1,223,142.58h0a14.9,14.9,0,0,1-2.64,29.08Z"/><path class="a206a7cc-60ff-437b-9126-70d7a7302880" d="M130.69,112.92l-1.13.78-.18.12c-.45.29-.92.57-1.4.85-.16.1-.33.19-.5.28l-1,.55-.59.3-1.1.51-.55.26c-.55.24-1.12.47-1.7.7l-.34.13-1.48.54-.67.22-1.27.41-.72.21-1.44.4-.58.16-2.05.49-.57.11c-.53.12-1.07.23-1.61.33l-.78.14-1.53.26-.77.12-1.89.25-.43.06q-1.17.14-2.37.24l-.7.06-1.77.13-.85,0-1.77.07-.78,0c-.85,0-1.7,0-2.56,0s-1.72,0-2.57,0l-.77,0c-.6,0-1.19,0-1.78-.08l-.84,0-1.8-.13-.67-.06c-.8-.07-1.59-.15-2.38-.24l-.39,0c-.65-.08-1.3-.17-1.94-.27l-.74-.11-1.57-.26-.73-.14-1.71-.34-.47-.1c-.71-.16-1.41-.32-2.09-.5l-.5-.13-1.53-.43-.66-.19-1.34-.43-.61-.21c-.54-.18-1.08-.38-1.6-.58l-.23-.09c-.6-.23-1.17-.47-1.73-.71l-.49-.23-1.17-.54-.55-.28-1.07-.57-.47-.27c-.49-.27-1-.56-1.41-.85l-.16-.11c-.39-.26-.78-.52-1.14-.79l-.16-.11v9.66c0,6.31,15.09,13.38,35.27,13.38s35.26-7.07,35.26-13.38v-9.66Z"/><path class="a206a7cc-60ff-437b-9126-70d7a7302880" d="M95.58,142.66c-15.16,0-27.94-3.46-35.27-8.91v9.49c0,6.32,15.09,13.38,35.27,13.38s35.26-7.06,35.26-13.38v-9.49C123.51,139.2,110.73,142.66,95.58,142.66Z"/><path class="a206a7cc-60ff-437b-9126-70d7a7302880" d="M95.58,163.44c-15.16,0-27.94-3.47-35.27-8.92v9.67c0,6.32,15.09,13.38,35.27,13.38s35.26-7.06,35.26-13.38v-9.67C123.51,160,110.73,163.44,95.58,163.44Z"/><path class="a206a7cc-60ff-437b-9126-70d7a7302880" d="M185.85,119.74c-4.32-.25-8.73-.48-13.18-.71a77.47,77.47,0,0,0-14.6-35.27c3-3.3,5.94-6.58,8.81-9.82,2-2.25,2.51-5,1.18-6.31l-.35-.36-9.1-9.09-.35-.36c-1.33-1.33-4.06-.82-6.32,1.18q-4.84,4.32-9.82,8.82a77.39,77.39,0,0,0-35.27-14.61c-.22-4.45-.45-8.86-.71-13.18-.17-3-1.75-5.3-3.63-5.3H88.64C86.77,34.73,85.19,37,85,40c-.25,4.32-.48,8.73-.71,13.18A77.48,77.48,0,0,0,49,67.82q-5-4.48-9.82-8.82c-2.25-2-5-2.51-6.31-1.18l-.36.36-9.09,9.09-.36.36c-1.33,1.33-.83,4.06,1.18,6.31,2.88,3.24,5.83,6.52,8.81,9.82A77.58,77.58,0,0,0,18.48,119c-4.45.23-8.86.46-13.18.71-3,.18-5.3,1.76-5.3,3.63v13.87c0,1.88,2.29,3.46,5.3,3.63,4.32.26,8.73.49,13.18.71a77.57,77.57,0,0,0,14.6,35.28c-3,3.3-5.93,6.58-8.81,9.81a7.58,7.58,0,0,0-1.84,3.51,3.08,3.08,0,0,0,.66,2.81l.36.35,9.09,9.1.36.35a3.05,3.05,0,0,0,2.81.66,7.46,7.46,0,0,0,3.5-1.84c3.24-2.87,6.52-5.82,9.82-8.81A77.37,77.37,0,0,0,84.3,207.4q.35,6.69.71,13.18c.18,3,1.76,5.3,3.63,5.3h13.87c1.88,0,3.46-2.28,3.63-5.3q.39-6.48.71-13.18a77.25,77.25,0,0,0,35.27-14.6c3.31,3,6.59,5.94,9.82,8.81a7.49,7.49,0,0,0,3.51,1.84,3.06,3.06,0,0,0,2.81-.66l.35-.35,9.1-9.1.35-.35c1.33-1.33.83-4.06-1.18-6.32-2.87-3.23-5.82-6.51-8.81-9.81a77.61,77.61,0,0,0,12.58-25.67,76.19,76.19,0,0,0,2-9.61c4.45-.22,8.86-.45,13.18-.71,3-.17,5.3-1.75,5.3-3.63V123.37C191.15,121.5,188.87,119.92,185.85,119.74Zm-48.37,2.73v41.72c0,11.41-18,20-41.9,20s-41.9-8.61-41.9-20V101.7h0c0-11.42,18-20,41.9-20s41.9,8.6,41.9,20Z"/><path class="a206a7cc-60ff-437b-9126-70d7a7302880" d="M95.58,88.32c-20.18,0-35.27,7.06-35.27,13.38,0,.07,0,.15,0,.23s0,.24,0,.36l0,.15c0,.15.06.3.1.45a.69.69,0,0,0,0,.13,5.16,5.16,0,0,0,.46,1.06s0,0,0,0A10.82,10.82,0,0,0,63.67,107c.46.36,1,.72,1.5,1.07l.09.06c.28.18.57.36.88.54h0c.31.18.62.36.95.53h0l.59.3.44.22A46.8,46.8,0,0,0,77,112.89h0c1.39.35,2.86.67,4.38,1l.19,0a74.72,74.72,0,0,0,7.76,1c2,.15,4.11.24,6.27.24,20.18,0,35.26-7.07,35.26-13.38S115.76,88.32,95.58,88.32Z"/></g></g></svg>