<svg xmlns="http://www.w3.org/2000/svg" viewBox="0 0 182.83 212.83"><defs><style>.a9ef0616-e76b-497f-a043-97ca414c1e19{fill:#003f8b;}</style></defs><g id="b1e1dda1-90e8-4fdb-a774-6286f843868f" data-name="Calque 2"><g id="adb38e6f-98c8-410d-bf89-f77f5e62ae31" data-name="Calque 1"><circle class="a9ef0616-e76b-497f-a043-97ca414c1e19" cx="88.21" cy="21.16" r="21.16"/><path class="a9ef0616-e76b-497f-a043-97ca414c1e19" d="M16.64,113.28l3.83,1a14.62,14.62,0,0,0,17.81-10.5L52.46,48.93a4.12,4.12,0,0,0-3-5h0A29.08,29.08,0,0,0,14.07,64.79L6.14,95.46A14.63,14.63,0,0,0,16.64,113.28Z"/><path class="a9ef0616-e76b-497f-a043-97ca414c1e19" d="M182.83,156.09c-8.71,7.18-17.07,14.76-25.3,22.47q-8.47,1.74-16.9,3.67V101.16c2.66-1,4.5-3.15,4.47-5.6s-1.85-4.46-4.47-5.43v-.07a2.06,2.06,0,0,0-2-2h-.07a2,2,0,0,0-1.95,1.48L109.7,87.71,94.18,56.09A18.17,18.17,0,0,0,92,51.75a4.76,4.76,0,0,0-.31-.47l0,0a8,8,0,0,0-.8-1,18.08,18.08,0,0,0-9.34-5.9h0a18.15,18.15,0,0,0-22.12,13L49.74,94.83A11.82,11.82,0,0,0,49.35,96L36,146a13.79,13.79,0,0,0-1.92,2.92q-13.17,23.4-26.36,46.8h0a5,5,0,0,0,.61,7.53c-2.79.3-5.58.62-8.36,1,10.74,1.4,21.54,2.27,32.34,3,6.42-1.91,12.84-3.85,19.23-5.89q24.9,1,49.81.9,14.88-4.05,29.65-8.53l5.44-1.67v18.75a2,2,0,0,0,2,2h.07a2.06,2.06,0,0,0,2-2v-20q10.16-3.18,20.24-6.61C168.45,175,175.87,165.72,182.83,156.09ZM100,192.28c-8.06,0-16.12.05-24.18.18-8.27.16-16.55.38-24.83.74l-.89,0-.5.21c-6.16,2.53-12.27,5.17-18.36,7.85q-8.13.55-16.25,1.28a78.39,78.39,0,0,0,8.52-6.87c2.22-2.06,3.82-3.79,5.77-5.89s3.57-4,6.63-7.59c4-4.66,4.56-5.46,6.94-8.15s4.51-5,5.87-6.38l6-7.72,1.51-2.87a11.69,11.69,0,0,0,1.27-2.43l.06-.12h0v0a9.75,9.75,0,0,0,.3-1l4.44-16.64L102.34,139l10.83,42.24h0a18.4,18.4,0,0,0,2.79,6.88Q108,190.15,100,192.28ZM128.68,185l-2.61.64a18.56,18.56,0,0,0-.14-6.9h0l-6.16-44.18a30.58,30.58,0,0,0-.46-3.35,26.78,26.78,0,0,0-3.65-9.29,11.1,11.1,0,0,0-9.44-6.3l-24-1.25,6.37-24.65,3.82,7.77a8.56,8.56,0,0,0,3,3.37,12.32,12.32,0,0,0,9.52,3.89,14.21,14.21,0,0,0,2.28-.21l29.33-2.67v81.31Z"/></g></g></svg>