<?xml version="1.0" encoding="utf-8"?>
<!-- Generator: Adobe Illustrator 27.2.0, SVG Export Plug-In . SVG Version: 6.00 Build 0)  -->
<svg version="1.1" id="Calque_1" xmlns="http://www.w3.org/2000/svg" xmlns:xlink="http://www.w3.org/1999/xlink" x="0px" y="0px"
	 viewBox="0 0 200 175" style="enable-background:new 0 0 200 175;" xml:space="preserve">
<style type="text/css">
	.st0{clip-path:url(#SVGID_00000006673233600875033800000007981800607434954918_);}
	.st1{fill:#F6FAFF;}
</style>
<g>
	<defs>
		<rect id="SVGID_1_" y="0" width="200" height="175"/>
	</defs>
	<clipPath id="SVGID_00000002370252368909975280000000409004018670831001_">
		<use xlink:href="#SVGID_1_"  style="overflow:visible;"/>
	</clipPath>
	<g style="clip-path:url(#SVGID_00000002370252368909975280000000409004018670831001_);">
		<path class="st1" d="M199.7,4.8c-0.5-0.9-1.1-1.7-1.9-2.3c-2-2.2-5.1-3-8-2.2L4.5,72.5C1.6,74-0.1,77,0,80.2
			c0,2.6,1.8,4.9,4.3,5.4L52.2,102C88.7,77.6,155.9,33,159.9,32.6c2.3-0.2,3,0.7,3,0.7c0.4,0.8,0.4,1.7,0,2.5
			c-1.1,3.4-55.4,54.5-85.9,83c25.1,16.9,50.1,33.9,75.2,50.8c1.8,1.1,5.1,2.7,8.2,1.6c3.8-1.3,5.2-6,5.8-7.9
			c15.7-49.5,22.4-101.5,33.9-152.2C200.8,9.1,200.6,6.8,199.7,4.8"/>
	</g>
</g>
</svg>
