<svg xmlns="http://www.w3.org/2000/svg" viewBox="0 0 95.02 65.27"><defs><style>.be1c6ab8-6a92-48c7-bf54-4ab9f85043f1{fill:#003f8b;}</style></defs><g id="fc66db33-cef3-4abb-b7e0-90c05d08052e" data-name="Calque 2"><g id="bfa13743-5941-4eaf-8e09-6c77a5394995" data-name="Calque 1"><path class="be1c6ab8-6a92-48c7-bf54-4ab9f85043f1" d="M47.51,21.91A16.79,16.79,0,1,0,64.3,38.7,16.8,16.8,0,0,0,47.51,21.91Z"/><path class="be1c6ab8-6a92-48c7-bf54-4ab9f85043f1" d="M90,12.12H68.54l-5.49-10A4.73,4.73,0,0,0,58.86,0h-23A4.73,4.73,0,0,0,31.6,2.21l-5.15,9.91H19.91v-2a2,2,0,0,0-2-2H9.18a2,2,0,0,0-2,2v2H5a5,5,0,0,0-5,5V60.28a5,5,0,0,0,5,5H90a5,5,0,0,0,5-5V17.11A5,5,0,0,0,90,12.12ZM47.51,63A24.26,24.26,0,1,1,71.77,38.7,24.29,24.29,0,0,1,47.51,63ZM85,23.42a3.67,3.67,0,1,1,3.67-3.67A3.67,3.67,0,0,1,85,23.42Z"/></g></g></svg>