<svg xmlns="http://www.w3.org/2000/svg" viewBox="0 0 283.46 233.1"><defs><style>.b55989ea-1ef2-4cda-b34a-2b70af973a53{fill:#003f8b;}</style></defs><g id="aab71388-5698-4edc-8f14-0b28b86591c9" data-name="Calque 2"><g id="ad18a3d4-a37b-4aec-a306-9076dd0a0aa0" data-name="Calque 1"><rect class="b55989ea-1ef2-4cda-b34a-2b70af973a53" x="234.18" y="146.14" width="22.05" height="97.39" rx="9.56" transform="translate(-65.95 230.45) rotate(-45)"/><rect class="b55989ea-1ef2-4cda-b34a-2b70af973a53" x="205.28" y="120.16" width="10.99" height="80.49" rx="5.04" transform="translate(-51.69 196.02) rotate(-45)"/><path class="b55989ea-1ef2-4cda-b34a-2b70af973a53" d="M20.58,105a45.6,45.6,0,0,1-6.68-.49A35.37,35.37,0,0,1,7.6,103a24.63,24.63,0,0,1-5.31-2.54,4.93,4.93,0,0,1-1.9-2.21,4.71,4.71,0,0,1-.34-2.54,4.43,4.43,0,0,1,1-2.2,3.41,3.41,0,0,1,2-1.18,3.69,3.69,0,0,1,2.65.69,26.24,26.24,0,0,0,7.06,2.88,32.66,32.66,0,0,0,7.82.91q6,0,8.73-2A6.18,6.18,0,0,0,32,89.63a5,5,0,0,0-1.93-4.17c-1.29-1-3.51-1.85-6.64-2.51l-8.35-1.74c-4.81-1-8.39-2.72-10.74-5.13A13,13,0,0,1,.85,66.56,14.92,14.92,0,0,1,2.36,59.8a15.74,15.74,0,0,1,4.29-5.24,19.94,19.94,0,0,1,6.61-3.38A28.84,28.84,0,0,1,21.72,50a32.1,32.1,0,0,1,8.65,1.14,24.76,24.76,0,0,1,7.37,3.34,4.07,4.07,0,0,1,1.63,2,4.57,4.57,0,0,1,.19,2.39,3.86,3.86,0,0,1-1.06,2,3.51,3.51,0,0,1-2.09,1,4.77,4.77,0,0,1-2.85-.76,21.18,21.18,0,0,0-5.69-2.28,26.71,26.71,0,0,0-6.22-.68,16.54,16.54,0,0,0-6,1A8.49,8.49,0,0,0,11.82,62a6.85,6.85,0,0,0-1.33,4.22,5.55,5.55,0,0,0,1.82,4.36c1.21,1.09,3.29,1.94,6.22,2.54l8.28,1.75q7.52,1.59,11.19,5A11.81,11.81,0,0,1,41.68,89,14.16,14.16,0,0,1,36,100.64a20,20,0,0,1-6.64,3.26A30.88,30.88,0,0,1,20.58,105Z"/><path class="b55989ea-1ef2-4cda-b34a-2b70af973a53" d="M138.51,107.91A26.3,26.3,0,0,1,125,104.5a23.18,23.18,0,0,1-9-9.61,31.25,31.25,0,0,1-3.19-14.53A33.37,33.37,0,0,1,114.6,69a24.94,24.94,0,0,1,5.2-8.66,22.79,22.79,0,0,1,8.12-5.54,27.86,27.86,0,0,1,10.59-1.93,26.45,26.45,0,0,1,13.59,3.38,23.14,23.14,0,0,1,9,9.52,31.19,31.19,0,0,1,3.18,14.5,33.48,33.48,0,0,1-1.82,11.39,25,25,0,0,1-5.2,8.73A22.51,22.51,0,0,1,149.1,106,27.78,27.78,0,0,1,138.51,107.91Zm0-8.35a14.89,14.89,0,0,0,8.39-2.28,14.44,14.44,0,0,0,5.31-6.6,26,26,0,0,0,1.86-10.32q0-9.12-4.06-14.12t-11.5-5a15.16,15.16,0,0,0-8.35,2.24A14.19,14.19,0,0,0,124.81,70,26,26,0,0,0,123,80.36q0,9,4.1,14.12T138.51,99.56Z"/><path class="b55989ea-1ef2-4cda-b34a-2b70af973a53" d="M138.51,0A80.45,80.45,0,0,0,68.3,41.3l.51,0h27.1c.5,0,1,0,1.46.07a56.76,56.76,0,1,1-4.73,72.42H68.81a17.12,17.12,0,0,1-3.58-.37A80.39,80.39,0,1,0,138.51,0Z"/><path class="b55989ea-1ef2-4cda-b34a-2b70af973a53" d="M64.4,105a4.65,4.65,0,0,1-5.17-5.16V56.69a4.64,4.64,0,0,1,5.17-5.16H91.49a4.1,4.1,0,0,1,2.93,1,3.74,3.74,0,0,1,1,2.81,3.58,3.58,0,0,1-4,4H68.57V74H89.82a4,4,0,0,1,3,1,4.7,4.7,0,0,1,0,5.77,4,4,0,0,1-3,1H68.57V97.3H91.49a4.1,4.1,0,0,1,2.93,1,4.59,4.59,0,0,1,0,5.77,4.06,4.06,0,0,1-2.93,1Z"/></g></g></svg>