<svg xmlns="http://www.w3.org/2000/svg" width="254.511" height="296.268" viewBox="0 0 254.511 296.268"><g transform="translate(-1424.654 -4413.451)"><path d="M20.936,140.846l5.331,1.378a20.357,20.357,0,0,0,24.8-14.615L70.807,51.264a5.738,5.738,0,0,0-4.119-6.991A40.489,40.489,0,0,0,17.358,73.339l-11.037,42.7a20.356,20.356,0,0,0,14.615,24.8" transform="translate(1426.876 4430.299)" fill="#fff"/><path d="M96.51,58.916A29.458,29.458,0,1,0,67.052,29.458,29.459,29.459,0,0,0,96.51,58.916" transform="translate(1450.941 4413.451)" fill="#fff"/><path d="M254.511,200.12c-12.132,9.992-23.765,20.545-35.223,31.287q-11.8,2.424-23.534,5.1V123.663c3.715-1.421,6.264-4.386,6.222-7.793-.042-3.348-2.575-6.208-6.222-7.568v-.1a2.856,2.856,0,0,0-2.847-2.847h-.095a2.848,2.848,0,0,0-2.719,2.052l-37.386-2.476L131.1,60.92a25.371,25.371,0,0,0-3.018-6.034c-.138-.228-.285-.445-.434-.663-.011-.014-.019-.028-.029-.042a12.006,12.006,0,0,0-1.118-1.393,25.248,25.248,0,0,0-43.791,9.939l-13.473,52.12a16.438,16.438,0,0,0-.546,1.661l-18.546,69.55a19.334,19.334,0,0,0-2.663,4.074q-18.35,32.569-36.7,65.142l.006.007a6.909,6.909,0,0,0,.845,10.479Q5.81,266.382,0,267.131c14.95,1.95,29.986,3.159,45.014,4.182,8.947-2.655,17.882-5.354,26.767-8.2q34.659,1.443,69.34,1.249,20.724-5.638,41.282-11.871,3.786-1.153,7.563-2.329v26.1a2.856,2.856,0,0,0,2.847,2.847h.095a2.855,2.855,0,0,0,2.847-2.847v-27.9q14.138-4.435,28.175-9.194c10.556-12.726,20.887-25.637,30.582-39.042M139.248,250.5c-11.22-.049-22.438.067-33.657.245-11.522.223-23.044.535-34.566,1.038l-1.238.054-.7.29c-8.567,3.527-17.073,7.2-25.556,10.927-7.541.519-15.083,1.1-22.615,1.789a110.434,110.434,0,0,0,11.857-9.565c3.088-2.868,5.316-5.273,8.026-8.2,2.785-3.005,4.974-5.565,9.238-10.561,5.54-6.491,6.348-7.6,9.655-11.355,3.4-3.855,6.274-6.906,8.17-8.878Q72,210.91,76.143,205.538l2.1-4a15.868,15.868,0,0,0,1.778-3.387c.028-.054.057-.107.085-.16l-.029-.006.006-.022c.157-.436.306-.876.427-1.332l6.178-23.163,55.772,2.893,15.076,58.8a25.706,25.706,0,0,0,3.885,9.583q-11.1,2.8-22.168,5.759m39.872-10.127c-1.208.291-2.415.59-3.623.884a26.193,26.193,0,0,0-.192-9.605l-8.578-61.5a41.488,41.488,0,0,0-.65-4.663A36.84,36.84,0,0,0,161,152.557a15.435,15.435,0,0,0-13.139-8.771l-33.435-1.734,8.871-34.322,5.311,10.819a12.008,12.008,0,0,0,4.106,4.691c2.826,3.319,7.712,5.487,13.254,5.419a20.164,20.164,0,0,0,3.174-.29l40.83-3.715V237.83q-5.427,1.255-10.847,2.543" transform="translate(1424.654 4430.61)" fill="#fff"/></g></svg>