<svg xmlns="http://www.w3.org/2000/svg" width="379.803" height="236.387" viewBox="0 0 379.803 236.387"><g transform="translate(-229.791 -3990.947)"><path d="M261.5,96.677a7.312,7.312,0,0,1,.671-1.1l19.621-25.606V27.384A14.081,14.081,0,0,0,267.71,13.3H14.081A14.081,14.081,0,0,0,0,27.384V193.925A14.08,14.08,0,0,0,14.081,208H267.71a14.08,14.08,0,0,0,14.081-14.078V136.351l-1.2.661-15.786,8.706a5.813,5.813,0,0,1-4.063.557v38.9a4.586,4.586,0,0,1-4.586,4.586H51.065a4.586,4.586,0,0,1-4.586-4.586V36.128a4.586,4.586,0,0,1,4.586-4.586H256.159a4.586,4.586,0,0,1,4.586,4.586V97.647a4.876,4.876,0,0,1,.755-.97M13.269,32.867a1.326,1.326,0,0,1,1.325-1.325H33.632a1.326,1.326,0,0,1,1.325,1.325V52.595a1.326,1.326,0,0,1-1.325,1.325H14.595a1.326,1.326,0,0,1-1.325-1.325Zm0,32.028a1.323,1.323,0,0,1,1.325-1.322H33.632a1.323,1.323,0,0,1,1.325,1.322V84.626a1.323,1.323,0,0,1-1.325,1.322H14.595a1.323,1.323,0,0,1-1.325-1.322ZM34.957,188.443a1.323,1.323,0,0,1-1.325,1.322H14.595a1.323,1.323,0,0,1-1.325-1.322V168.711a1.323,1.323,0,0,1,1.325-1.322H33.632a1.323,1.323,0,0,1,1.325,1.322Zm0-32.031a1.326,1.326,0,0,1-1.325,1.325H14.595a1.326,1.326,0,0,1-1.325-1.325V136.684a1.326,1.326,0,0,1,1.325-1.325H33.632a1.326,1.326,0,0,1,1.325,1.325ZM24.113,121.881a11.228,11.228,0,1,1,11.226-11.226,11.226,11.226,0,0,1-11.226,11.226" transform="translate(229.791 4019.331)" fill="#f6faff"/><path d="M217.4,113.022a1,1,0,0,1-.851-.474l-43.54-70.372a18.918,18.918,0,0,0-31.93.006l-37.262,58.657a9.157,9.157,0,0,1-7.767,4.266h0a9.151,9.151,0,0,1-7.762-4.266l-13.276-20.9A18.825,18.825,0,0,0,59.043,71.17h0a18.83,18.83,0,0,0-15.968,8.774L28.244,103.285a8.732,8.732,0,0,1-4.565,3.659A9.085,9.085,0,0,1,13.8,104.07a8.737,8.737,0,0,1-1.892-5.538,1,1,0,0,1,2,0,6.86,6.86,0,0,0,12.65,3.681l1.553-2.446,13.276-20.9a20.761,20.761,0,0,1,17.656-9.7h0a20.755,20.755,0,0,1,17.652,9.7l13.276,20.9a7.2,7.2,0,0,0,12.155,0l11.994-18.879,25.267-39.778a20.883,20.883,0,0,1,35.31,0l.006.01L218.246,111.5a1,1,0,0,1-.849,1.526Z" transform="translate(260.186 4064.331)" fill="#f6faff"/><path d="M63.442,41.265A16.821,16.821,0,1,1,46.619,24.443,16.823,16.823,0,0,1,63.442,41.265Z" transform="translate(299.973 4045.567)" fill="rgba(0,0,0,0)"/><path d="M46.619,23.443a17.765,17.765,0,1,1-6.936,1.4A17.71,17.71,0,0,1,46.619,23.443Zm0,33.645A15.822,15.822,0,1,0,30.8,41.265,15.84,15.84,0,0,0,46.619,57.088Z" transform="translate(299.973 4045.567)" fill="#f6faff"/><path d="M184.916-.553h0A17.074,17.074,0,0,1,199.69,25.032a8.567,8.567,0,0,1-.7,1.465l-38.162,63-37.87,62.522c-.022.038-.045.073-.067.106a6.215,6.215,0,0,1-3.1,4.038L85.3,175.2a7.052,7.052,0,0,1-3.445.878,8.54,8.54,0,0,1-6.269-2.9,7.374,7.374,0,0,1-1.908-5.819l2.136-17.642,2.6-21.468a6.243,6.243,0,0,1,1.677-3.6,7.884,7.884,0,0,1,.7-1.1L169.861,7.286a8.49,8.49,0,0,1,2.187-2.008A17.071,17.071,0,0,1,184.916-.553ZM120.41,150.435l37.85-62.489,38.162-63a5.683,5.683,0,0,0,.491-1.051l.047-.133.072-.122A14.071,14.071,0,0,0,174.175,7.4l-.161.189-.213.127a5.511,5.511,0,0,0-1.558,1.389L83.163,125.372a5.308,5.308,0,0,0-.513.848l-.114.226-.182.176a3.228,3.228,0,0,0-.97,1.985l-2.6,21.469-2.136,17.642a4.416,4.416,0,0,0,1.175,3.468,5.575,5.575,0,0,0,4.023,1.889,4.085,4.085,0,0,0,2-.505l34.493-19.031a3.233,3.233,0,0,0,1.676-2.32l.057-.314.179-.264C120.313,150.553,120.372,150.481,120.41,150.435Z" transform="translate(407.628 3991.499)" fill="#f6faff"/><path d="M116.563,65.173a1,1,0,0,1-.9-.572c-5.437-11.458-15.677-17.638-23.31-20.8A60.635,60.635,0,0,0,76.9,39.621a1,1,0,1,1,.194-1.991A61.634,61.634,0,0,1,93.115,41.95a52.933,52.933,0,0,1,13.348,7.867,40.354,40.354,0,0,1,11,13.928,1,1,0,0,1-.9,1.429Z" transform="matrix(1, -0.017, 0.017, 1, 410.835, 4081.053)" fill="#f6faff"/><path d="M0,10.7a1,1,0,0,1-.537-.157A1,1,0,0,1-.843,9.159L5.34-.538A1,1,0,0,1,6.721-.843,1,1,0,0,1,7.027.538l-6.183,9.7A1,1,0,0,1,0,10.7Z" transform="translate(478.56 4166.075)" fill="#fff"/><path d="M108.956,26.559a4.75,4.75,0,0,1,3.992,7.3L94.431,62.888a4.745,4.745,0,0,1-8-5.1L104.942,28.75A4.736,4.736,0,0,1,108.956,26.559ZM90.422,63.185a2.842,2.842,0,0,0,2.411-1.316L111.35,32.837a2.853,2.853,0,0,0-4.811-3.067L88.026,58.8a2.847,2.847,0,0,0,2.4,4.381Z" transform="translate(433.824 4052.781)" fill="#f6faff"/></g></svg>