<svg xmlns="http://www.w3.org/2000/svg" width="310.77" height="304" viewBox="0 0 310.77 304"><path d="M305.535,19.492c-3.544-6.837-8.4-12.512-13.661-15.981C286.249-.2,280.76-1,276.42,1.254c-.018.008-.03.02-.045.028a5.456,5.456,0,0,0-.781.3L227.546,26.508a5.713,5.713,0,0,0-2.857,6.653l-78.48,40.718a6.507,6.507,0,0,0-2.781,8.771l.232.446L94.138,108.787l-.008-.02L87.77,96.506l9.247-4.8.076.141a2.067,2.067,0,0,0,2.789.884l29-15.049.038-.008c.02-.01.033-.028.053-.038l.3-.156a1.83,1.83,0,0,0,.229-.184c-.03.013-.063.008-.091.018a4.112,4.112,0,0,0,1.249-3.255,12.436,12.436,0,0,0-1.37-5.406c-1.957-4-5.182-6.318-7.34-5.252-.05.025-.088.073-.141.1L92.589,78.672a2.07,2.07,0,0,0-.884,2.791l.073.141L81.3,87.037a3.709,3.709,0,0,0-2.514.317l-3.5,1.816a3.71,3.71,0,0,0-1.705,1.874l-12.9,6.7a1.74,1.74,0,0,0-.746,2.343l.484.93-10.283,5.335a.753.753,0,0,0-.32,1.01l2.232,4.3a.749.749,0,0,0,1.008.32l10.283-5.335.242.464a1.736,1.736,0,0,0,2.34.743L77.6,101.786l6.361,12.26.015.018L45.926,133.8a5.465,5.465,0,0,0-2.33,7.363l1.516,2.922-16.721,8.673-10.449-20.14a2.35,2.35,0,0,0-3.169-1.005l-13.5,7.005a2.356,2.356,0,0,0-1.005,3.171L18.8,177.523a2.351,2.351,0,0,0,3.171,1.005l13.5-7.005,18.8-9.759.758,1.458a5.459,5.459,0,0,0,7.361,2.333l72.989-37.871,19.192,15.925H144.579a2.284,2.284,0,0,0-2.285,2.282V156.28a2.286,2.286,0,0,0,2.285,2.282H152.7l-47.71,135.476a7.477,7.477,0,0,0,14.1,4.968l42.823-121.6v81.475a7.476,7.476,0,1,0,14.953,0V165.691l46.947,133.314a7.477,7.477,0,0,0,14.1-4.968L190.209,158.563h3.99a2.284,2.284,0,0,0,2.285-2.282V145.892a2.282,2.282,0,0,0-2.285-2.282H180.737V133.44a11.381,11.381,0,0,0-11.348-11.348c-.282,0-.549.063-.826.083V118.3c.194-.078.385-.131.577-.229l78.455-40.707a5.7,5.7,0,0,0,7.23,1.715l47.995-24.9c.29-.118.579-.234.862-.38,8.683-4.5,9.5-19.573,1.854-34.3M123.082,64.379c1.408,0,3.6,1.741,5.109,4.819a11.211,11.211,0,0,1,1.244,4.854c-.01,1.287-.39,2.207-1.048,2.527s-1.615.053-2.635-.725a7.872,7.872,0,0,1-.8-.705,14.638,14.638,0,0,1-2.181-3.29,14.455,14.455,0,0,1-1.26-3.771c-.222-1.821.174-3.189.972-3.58a1.353,1.353,0,0,1,.594-.128m178.695-14.25c-3.428,1.778-8.111.421-12.7-3.083a42.834,42.834,0,0,1-10.718-13.54,44.384,44.384,0,0,1-4.665-14.273c-.751-6.761.783-12.313,4.63-14.311a7.253,7.253,0,0,1,3.378-.783,14.847,14.847,0,0,1,7.9,2.824c4.685,3.088,9.041,8.212,12.268,14.432,6.356,12.253,6.315,25.412-.091,28.735" transform="translate(0)" fill="#f6faff"/></svg>