<svg xmlns="http://www.w3.org/2000/svg" width="311" height="213.924" viewBox="0 0 311 213.924"><g transform="translate(-1260.5 -3585.5)"><path d="M-2352.734-252.076A16.312,16.312,0,0,1-2369-268.339V-409.185a16.315,16.315,0,0,1,16.266-16.266h7.226V-431.9a6.468,6.468,0,0,1,6.449-6.45h28.558a6.468,6.468,0,0,1,6.45,6.45v6.447h21.351l16.8-32.326c2.267-4.365,7.722-7.223,13.787-7.223h75.128c5.954,0,11.33,2.757,13.669,7.008l17.917,32.542h70.13A16.315,16.315,0,0,1-2059-409.185v140.846a16.312,16.312,0,0,1-16.266,16.262Zm59.6-86.686A79.227,79.227,0,0,0-2214-259.625a79.226,79.226,0,0,0,79.137-79.137A79.229,79.229,0,0,0-2214-417.9,79.23,79.23,0,0,0-2293.138-338.762Zm189.458-61.814A11.976,11.976,0,0,0-2091.7-388.6a11.978,11.978,0,0,0,11.977-11.976,11.976,11.976,0,0,0-11.977-11.976A11.973,11.973,0,0,0-2103.68-400.576Zm-165.082,61.811A54.826,54.826,0,0,1-2214-393.53a54.825,54.825,0,0,1,54.761,54.764A54.827,54.827,0,0,1-2214-284,54.828,54.828,0,0,1-2268.762-338.765Z" transform="translate(3630 4051)" fill="#f6faff"/><path d="M-2075.265-251.576h-277.469a16.564,16.564,0,0,1-6.511-1.323,16.8,16.8,0,0,1-5.33-3.6,16.792,16.792,0,0,1-3.6-5.329,16.555,16.555,0,0,1-1.323-6.51V-409.185a16.558,16.558,0,0,1,1.323-6.511,16.8,16.8,0,0,1,3.6-5.33,16.8,16.8,0,0,1,5.33-3.6,16.56,16.56,0,0,1,6.511-1.323h6.726V-431.9a6.957,6.957,0,0,1,6.949-6.95h28.558a6.958,6.958,0,0,1,6.95,6.95v5.947H-2283l16.664-32.057a13.123,13.123,0,0,1,5.681-5.461,18.475,18.475,0,0,1,8.55-2.032h75.128c6.141,0,11.678,2.852,14.107,7.267l17.774,32.283h69.834a16.559,16.559,0,0,1,6.511,1.323,16.8,16.8,0,0,1,5.33,3.6,16.8,16.8,0,0,1,3.6,5.33,16.558,16.558,0,0,1,1.323,6.511v140.846a16.555,16.555,0,0,1-1.323,6.51,16.791,16.791,0,0,1-3.6,5.329,16.8,16.8,0,0,1-5.33,3.6A16.564,16.564,0,0,1-2075.265-251.576Zm-277.469-173.375a15.784,15.784,0,0,0-15.766,15.766v140.846a15.782,15.782,0,0,0,15.766,15.762h277.469a15.782,15.782,0,0,0,15.766-15.762V-409.185a15.784,15.784,0,0,0-15.766-15.766h-70.425l-.143-.259-17.917-32.542c-2.256-4.1-7.45-6.749-13.231-6.749h-75.128c-5.912,0-11.149,2.729-13.343,6.953l-16.944,32.6h-22.155V-431.9a5.957,5.957,0,0,0-5.95-5.95h-28.558a5.956,5.956,0,0,0-5.949,5.95v6.947ZM-2214-259.125a79.729,79.729,0,0,1-79.64-79.637A79.73,79.73,0,0,1-2214-418.4a79.729,79.729,0,0,1,79.637,79.641A79.727,79.727,0,0,1-2214-259.125Zm0-158.277a78.729,78.729,0,0,0-78.64,78.641A78.728,78.728,0,0,0-2214-260.125a78.726,78.726,0,0,0,78.637-78.637A78.728,78.728,0,0,0-2214-417.4Zm0,133.9a55.327,55.327,0,0,1-55.264-55.264A55.327,55.327,0,0,1-2214-394.03a55.325,55.325,0,0,1,55.261,55.264A55.325,55.325,0,0,1-2214-283.5Zm0-109.529a54.326,54.326,0,0,0-54.264,54.264A54.326,54.326,0,0,0-2214-284.5a54.324,54.324,0,0,0,54.261-54.264A54.324,54.324,0,0,0-2214-393.03Zm122.293,4.93a12.393,12.393,0,0,1-8.822-3.655,12.394,12.394,0,0,1-3.653-8.821,12.394,12.394,0,0,1,3.653-8.822,12.394,12.394,0,0,1,8.822-3.653,12.4,12.4,0,0,1,8.822,3.653,12.393,12.393,0,0,1,3.655,8.822A12.49,12.49,0,0,1-2091.7-388.1Zm0-23.952a11.489,11.489,0,0,0-11.476,11.476A11.489,11.489,0,0,0-2091.7-389.1a11.489,11.489,0,0,0,11.477-11.476A11.489,11.489,0,0,0-2091.7-412.052Z" transform="translate(3630 4051)" fill="rgba(0,0,0,0)"/></g></svg>