<svg xmlns="http://www.w3.org/2000/svg" viewBox="0 0 613.82 787.8"><defs><style>.cls-1{fill:none;stroke-miterlimit:10;stroke-width:5.98px;}.cls-1,.cls-2,.cls-5,.cls-6,.cls-8{stroke:#fff;}.cls-2{font-size:120.69px;font-family:SourceSansPro-SemiBold, Source Sans Pro;font-weight:600;letter-spacing:-0.05em;}.cls-2,.cls-4,.cls-5,.cls-6,.cls-8{fill:#fff;}.cls-3{letter-spacing:0em;}.cls-5{font-size:43.45px;}.cls-5,.cls-6,.cls-8{font-family:SourceSansPro-Regular, Source Sans Pro;}.cls-6,.cls-8{font-size:90.51px;}.cls-6{letter-spacing:-0.04em;}.cls-7{letter-spacing:0em;}</style></defs><g id="Calque_2" data-name="Calque 2"><g id="Calque_1-2" data-name="Calque 1"><path class="cls-1" d="M382.43,3c3.71.69.61,40.89-6,76.53-.07.37-2.06,10.1-6,29.55-2.95,14.46-5.3,29-8.34,43.48-3.82,18.09-5.36,22.83-3.5,31,1.59,7,4.74,12.4,9.45,20.45,4.62,7.88,8,13.66,14.47,19.13,1.69,1.43,1.93,1.43,18,10.37,13.57,7.56,16.49,9.27,20.59,12.64a81,81,0,0,1,10.72,10.73c3.4,4,5.12,6.06,6.19,8.92,1.61,4.32.64,6.25,2.75,8.78s5.56,3.28,8.26,3.79c4.95.93,7.4-.16,11.81-.32,2.26-.08,5.35.08,14.34,2.91,15.76,5,37.49,14.33,40.25,15.53,17.58,8.22,30.72,14.11,39.77,18.1,8.32,3.66,16,8.88,24.7,11.53a35.77,35.77,0,0,1,13.86,7.26c1.84,1.61,1.5,1.69,4.55,4.8,8.39,8.58,11.52,8.52,12.49,12.5.38,1.54-.51,4.75-2.28,11.18-1.46,5.28-2.42,6.93-2.75,7.48-2,3.22-3.22,3.22-4.65,6.2-1.1,2.3-.86,3.35-1.7,7.45a77.24,77.24,0,0,1-2.48,8.64,94.41,94.41,0,0,1-5.32,13.95c-3.35,6.81-5.21,7.75-6.1,12.36a21.92,21.92,0,0,0,.16,8.84,77.36,77.36,0,0,1,2.47,19.77c-.07,8.41-1.56,13.26-1,24.69.1,2,.25,5.13.81,9.23,1.14,8.37,2.72,11.83,4.42,20.54.55,2.81,1.29,7.07,1.83,12.41-6.1-.07-15.12-.19-26-.43-20.38-.46-30.75-.71-39.58-1.62-5.18-.53-10.68-1.3-39.58-8-28.11-6.54-53.58-13-56.05-13.58-32.63-8.24-35.53-9.34-45.51-10.6-7.28-.92-19-1-42.36-1.24-58.69-.53-53,2.9-62.15,1.1-2.39-.48-9.06-2-15.88,1-3.14,1.36-5.11,3.17-8.93,6.74-8.94,8.36-8.65,11.94-14.56,14.76-4.73,2.26-6.06.51-10.43,3.27-1.15.73-1.95,1.42-8.16,9.43-6.52,8.43-7.6,10.2-8.14,13-.45,2.35-.09,3.14-.86,5.65a20.4,20.4,0,0,1-5,8.15c-3.87,4.18-6.78,9.92-12.58,21.39-3,5.92-1.67,4.36-6.23,14.17-5.66,12.17-7.54,14.21-9.35,20.64-.75,2.65-.5,2.55-2.06,15.64-1.71,14.38-2.57,21.57-3.46,28.26-.83,6.31-1.32,9.57-1.07,14.6a68,68,0,0,0,2,12.63c2.33,10.61,4.19,21.32,6.42,31.95.93,4.47,2.25,10.76,3.29,15.75a116.27,116.27,0,0,0-13.51,2.36,67,67,0,0,0-10.49,3c-9.58,3.9-9.05,8.06-18.13,12.33-7.55,3.54-9.39,1.37-14.75,5.24-3.22,2.33-5.31,5.53-9.49,11.93-5.46,8.37-4.82,9.43-8.87,14.51-3.68,4.61-3.92,3.39-9.92,10.12-5.22,5.86-7.75,9.84-9.44,9.19-.69-.27-1-1.87-1.74-5.06-.56-2.59-.89-4.8-1.1-6.43C86.33,761,82.9,758,80.35,758c-1.5,0-2.51,1-7,2.32a50.39,50.39,0,0,1-6.6,1.55,5,5,0,0,1-.67-2.85,5.22,5.22,0,0,1,2.15-3.65,8.54,8.54,0,0,0,4.48-4.19c1.45-3.34-.76-6,1.15-8.46,1.19-1.56,2.73-1.42,3.46-3.28.3-.76.68-2.39-.08-3.25-1.62-1.84-6,2.53-10.66,1.14-4.22-1.27-3.58-5.79-8.59-8.09-3.62-1.66-5.19.12-9.5-.91a17.81,17.81,0,0,1-11.64-9.41c-3-6.78,1.14-13.33-1-22.72-.42-1.86-1-3.52-2.45-4.61-1.24-.94-2.17-.76-6.23-2.09a15.52,15.52,0,0,1-3.3-1.27,7.89,7.89,0,0,1-2.69-8.52c1.06-2.77,3.65-2.63,4.1-5.2.41-2.32-1.33-4.53-1.92-5.28-1.4-1.77-2.42-1.77-3.92-3.31A12.06,12.06,0,0,1,16.63,660c-1.93-7.62,3.66-12.91,2.14-19.9-1.95-9-13.89-12.12-12.39-17.84.47-1.77,1.78-2.18,2.46-5.22a10.82,10.82,0,0,0-.61-7.24c-1.11-2.19-2.2-1.89-3.61-4.34-.52-.9-2.45-4.23-1.23-6.4,1.06-1.89,3.34-.81,7-3.35a10,10,0,0,0,3.67-4.08,10.38,10.38,0,0,0,.72-4.58,34.09,34.09,0,0,0-1.16-8.29c-.52-2.14-.85-2.81-.49-3.84.57-1.62,2-1.77,2.92-3.28,1.07-1.76.53-3.76.17-5.64a43.64,43.64,0,0,1-.58-11.2,9.26,9.26,0,0,0,4-4.91c1.57-5.27-4.12-9-2.46-13.35,1.1-2.84,3.83-1.9,8.29-6.59,2.07-2.19,3.85-4.07,4.38-6.91.84-4.44-2.27-6.45-1.24-10.5.64-2.48,2.24-3.4,4.17-5.48,4.54-4.9,3.66-8.48,7.11-16.83,3.53-8.56,5.24-6.71,9.87-16.67.9-1.93,2.55-6.61,5.85-16,4.45-12.59,3.92-12.17,5.19-14.34,1.62-2.79,3.06-4.47,2.74-6.93-.36-2.79-2.53-3.1-5.74-7-2.7-3.28-4-6.95-6.64-14.28a15.07,15.07,0,0,1-1.12-4.79,15.87,15.87,0,0,1,2.11-7.87,88.34,88.34,0,0,0,4.32-11.81c1.75-6-.69-8.45-5.38-30.42A28.34,28.34,0,0,1,50.68,349c.64-3.66,1.47-3.55,1.7-6.13.6-6.74-4.85-9.59-4.28-14.7.24-2.18,1.62-5.13,6.79-8.29a60.74,60.74,0,0,0,10.16-9.63c5.38-6.43,5.63-9.48,10.15-15.5,5.4-7.19,6.92-5.32,16.17-14.86,6.09-6.28,10.83-11.27,13.46-19.15,1.07-3.21.5-3,2-12.88s2.32-12.1,5-26.44c.77-4.11,1.84-10.07,3-17.37a73.52,73.52,0,0,1,7.48-11.73c5.48-7,10.58-10.85,17.39-16.11,16.83-13,25.3-19.59,27.66-22.89,6.44-9,2.93-10.73,10.37-25.46,4.94-9.76,7.09-10.2,20-28.81,15.47-22.25,16.65-27.72,16.22-32.63-.75-8.6-6.39-15.09-10.6-19,3.66-.87,9.23-2.26,15.95-4.16,22.77-6.41,39.41-11.23,56.59-22.46A126,126,0,0,0,292.59,7.74l15.08,7.79,8.53,1.41a41.78,41.78,0,0,1,6.21,3.18c5,3.13,6,5.22,8,4.95,3.32-.45,2.61-6.65,7.07-9.45,2.58-1.61,4.67-.69,15.14,1.09,13.86,2.35,16.68,1.83,18.88.74,3.84-1.88,6.07-5.6,7.42-9.11C380.81,3.75,381.84,2.89,382.43,3Z"/><text class="cls-2" transform="translate(145.37 429.15)">Y<tspan class="cls-3" x="54.67" y="0">enne</tspan></text><path class="cls-4" d="M418.38,263.47c-46.87-33.29-94.23-68.63-140.16-103.31l-19.81-15,6-1.77c-4.9,13.78-13.64,38.19-18.6,51.92-20.54-3.38-44.43-7.38-65-10.89l4.29-2.38c-9.28,22.16-20.42,48.54-29.89,70.63l-.33.76-.57.46c-20.18,16.53-41.78,34.07-62.17,50.32-12,9.62-25.52,20.31-37.68,29.74,6.64-6.11,16.86-15.32,23.72-21.48,23.5-21.07,48.17-42.74,72-63.46l-.9,1.22c8.83-22.35,19.49-48.92,28.51-71.19l1.17-2.89c15,2.4,34.4,5.55,49.37,8l15.41,2.55-4.49,2.64c5.26-14.54,14.3-39.18,19.63-53.66l4.2,3.28c51.85,40.58,104.68,82.38,155.2,124.53Z"/><text class="cls-5" transform="translate(401 317.09)">sur</text><text class="cls-6" transform="translate(224.34 317.39)">P<tspan class="cls-7" x="47.34" y="0">aul </tspan></text><text class="cls-5" transform="translate(185.05 278)">t</text><text class="cls-8" transform="translate(144.42 317.39)">S </text><text class="cls-8" transform="translate(196.84 319.86)">-</text></g></g></svg>