<?xml version="1.0" encoding="utf-8"?>
<!-- Generator: Adobe Illustrator 27.2.0, SVG Export Plug-In . SVG Version: 6.00 Build 0)  -->
<svg version="1.1" id="Calque_1" xmlns="http://www.w3.org/2000/svg" xmlns:xlink="http://www.w3.org/1999/xlink" x="0px" y="0px"
	 viewBox="0 0 16 16" style="enable-background:new 0 0 16 16;" xml:space="preserve">
<style type="text/css">
	.st0{fill:#F6FAFF;}
</style>
<path class="st0" d="M5,8c1.1,0,2-0.9,2-2S6.1,4,5,4S3,4.9,3,6S3.9,8,5,8z M9,5.5C9,5.2,9.2,5,9.5,5h4C13.8,5,14,5.2,14,5.5
	S13.8,6,13.5,6h-4C9.2,6,9,5.8,9,5.5z M9,8c0-0.3,0.2-0.5,0.5-0.5h4C13.8,7.5,14,7.7,14,8c0,0.3-0.2,0.5-0.5,0.5h-4
	C9.2,8.5,9,8.3,9,8z M10,10.5c0-0.3,0.2-0.5,0.5-0.5h3c0.3,0,0.5,0.2,0.5,0.5S13.8,11,13.5,11h-3C10.2,11,10,10.8,10,10.5z"/>
<path class="st0" d="M2,2C0.9,2,0,2.9,0,4v8c0,1.1,0.9,2,2,2h12c1.1,0,2-0.9,2-2V4c0-1.1-0.9-2-2-2H2z M1,4c0-0.6,0.4-1,1-1h12
	c0.6,0,1,0.4,1,1v8c0,0.6-0.4,1-1,1H9c0-0.2,0-0.3,0-0.5C9,10.6,7.2,9,5,9c-2.1,0-3.8,1.4-4,3.2c0-0.1,0-0.1,0-0.2V4z"/>
</svg>
